<?xml version="1.0" standalone="no"?>
<!DOCTYPE svg PUBLIC "-//W3C//DTD SVG 20010904//EN"
 "http://www.w3.org/TR/2001/REC-SVG-20010904/DTD/svg10.dtd">
<svg version="1.0" xmlns="http://www.w3.org/2000/svg"
 width="674.000000pt" height="283.000000pt" viewBox="0 0 674.000000 283.000000"
 preserveAspectRatio="xMidYMid meet">

<g transform="translate(0.000000,283.000000) scale(0.100000,-0.100000)"
fill="#000000" stroke="none">
<path d="M4400 2420 c-270 -31 -530 -124 -636 -227 -86 -83 -119 -207 -75
-280 23 -36 90 -85 164 -117 61 -27 226 -82 492 -162 208 -63 299 -97 370
-139 143 -83 181 -181 90 -232 -50 -28 -105 -36 -239 -34 -195 2 -383 45 -544
126 -141 70 -206 151 -169 208 8 13 43 38 76 56 67 35 74 54 21 59 -115 11
-206 -77 -186 -181 36 -191 439 -366 841 -367 213 0 339 66 353 185 7 67 -5
110 -48 164 -97 122 -257 197 -665 310 -266 73 -399 127 -431 176 -13 20 -14
30 -4 59 31 94 215 181 491 232 115 21 375 29 469 15 108 -17 198 -48 216 -77
21 -31 13 -41 -57 -71 -42 -18 -59 -31 -59 -45 0 -43 125 -50 179 -10 l28 20
-3 -46 c-2 -26 -8 -139 -14 -252 -11 -209 -27 -442 -35 -517 -5 -51 12 -73 59
-73 39 0 66 26 66 62 0 29 64 218 86 258 14 23 14 21 9 -30 -7 -67 9 -156 33
-190 49 -65 135 -31 199 78 l26 43 24 -40 c31 -53 68 -71 141 -71 49 0 66 5
99 29 73 53 110 180 84 279 -22 81 -99 142 -179 142 -71 0 -136 -67 -173 -178
-38 -115 -97 -222 -122 -222 -13 0 -3 203 13 278 7 29 9 59 6 67 -6 18 -87 21
-117 5 -10 -6 -40 -45 -65 -88 l-46 -77 6 95 c4 52 13 173 22 268 15 166 15
174 -2 193 -14 15 -28 20 -55 17 l-36 -3 10 32 c13 41 -3 100 -37 141 -66 78
-248 132 -461 137 -77 2 -174 0 -215 -5z m1320 -772 c39 -87 20 -258 -29 -258
-55 0 -88 131 -60 235 22 80 59 89 89 23z"/>
<path d="M1167 2344 c-75 -7 -222 -25 -325 -39 -103 -15 -250 -30 -327 -34
-77 -5 -152 -14 -167 -21 -34 -16 -45 -47 -25 -68 27 -26 104 -30 340 -20 125
6 229 9 232 6 2 -2 0 -33 -6 -69 -6 -35 -13 -140 -17 -232 l-7 -168 -53 -18
c-52 -18 -92 -45 -92 -64 0 -6 27 -8 73 -4 l72 6 -4 -176 c-3 -199 4 -238 50
-277 43 -37 67 -34 86 12 13 29 17 84 21 245 l4 207 32 0 c70 1 333 27 344 34
22 14 13 53 -19 80 -27 23 -39 26 -113 26 -71 0 -144 -8 -222 -25 -19 -4 -20
2 -32 193 -7 108 -14 206 -15 217 -2 19 6 20 298 27 397 8 505 24 505 74 0 27
-59 73 -113 89 -64 19 -323 19 -520 -1z"/>
<path d="M6010 1794 c-64 -55 -113 -192 -114 -324 -1 -109 17 -172 64 -221 34
-36 41 -39 90 -39 127 0 241 112 301 292 23 72 21 98 -9 98 -15 0 -32 -25 -68
-97 -56 -114 -143 -213 -185 -213 -41 0 -61 31 -66 104 -8 93 0 116 40 116 42
0 132 43 146 69 17 30 13 101 -8 146 -41 91 -127 122 -191 69z m110 -124 c0
-43 -16 -65 -52 -74 -16 -4 -28 -5 -28 -3 0 10 34 115 42 131 10 19 11 19 24
1 8 -10 14 -35 14 -55z"/>
<path d="M2525 1770 c-48 -24 -88 -75 -111 -139 -48 -133 -108 -231 -141 -231
-13 0 -15 17 -12 123 l4 122 -41 3 c-55 4 -92 -28 -128 -108 -15 -33 -28 -60
-30 -60 -4 0 14 128 24 175 12 54 -8 85 -53 85 -59 -1 -81 -32 -95 -135 -11
-77 -64 -226 -88 -246 -28 -23 -36 9 -29 126 3 61 8 124 11 142 5 28 2 33 -24
47 -42 21 -89 21 -100 -1 -5 -10 -24 -67 -41 -128 -36 -121 -69 -205 -82 -205
-19 0 -20 27 -5 153 25 219 25 229 -5 245 -27 16 -62 12 -92 -11 -16 -11 -21
-35 -29 -138 -5 -68 -8 -164 -6 -212 3 -86 4 -90 36 -118 67 -60 124 -31 181
91 25 54 30 60 31 37 1 -70 54 -127 117 -127 40 0 69 23 103 83 l30 52 0 -46
c0 -52 21 -79 62 -79 42 0 64 29 83 110 9 41 25 89 33 105 l17 30 5 -70 c7
-85 21 -112 66 -131 45 -19 88 -2 135 56 l36 42 24 -48 c34 -69 79 -97 146
-92 32 3 61 12 73 23 19 18 20 18 20 -3 0 -15 -8 -23 -27 -28 -191 -42 -282
-140 -227 -245 18 -36 83 -69 134 -69 42 0 103 27 147 64 37 31 76 109 91 182
14 63 137 236 147 206 3 -10 21 -33 40 -52 28 -28 44 -34 89 -38 70 -6 96 1
137 35 49 41 79 115 79 194 0 147 -102 245 -220 210 -56 -17 -101 -73 -143
-182 -21 -51 -53 -119 -73 -149 l-35 -55 5 152 c6 170 2 183 -58 183 -24 0
-38 7 -55 31 -21 29 -74 59 -103 59 -7 0 -31 -9 -53 -20z m118 -98 c42 -71 12
-276 -46 -317 -18 -12 -24 -13 -42 -1 -63 41 -57 231 11 334 21 32 53 25 77
-16z m482 -27 c27 -55 28 -188 2 -229 -44 -67 -100 5 -100 128 0 137 53 191
98 101z m-494 -473 c-31 -107 -112 -177 -141 -122 -12 23 6 76 35 100 16 14
91 48 107 49 4 1 3 -12 -1 -27z"/>
<path d="M920 670 c0 -103 1 -110 20 -110 16 0 20 7 20 35 0 28 4 35 19 35 11
0 28 -15 41 -35 15 -24 29 -35 46 -35 l24 0 -26 40 c-25 38 -26 41 -10 58 22
25 20 78 -4 102 -15 15 -33 20 -75 20 l-55 0 0 -110z m107 54 c9 -24 -10 -49
-41 -52 -24 -3 -26 0 -26 32 0 33 2 36 30 36 19 0 33 -6 37 -16z"/>
<path d="M1330 711 c0 -115 22 -151 93 -151 59 0 77 31 77 133 0 80 -2 87 -20
87 -18 0 -20 -7 -20 -77 0 -91 -7 -106 -46 -101 l-29 3 -3 88 c-3 85 -3 87
-27 87 -24 0 -25 -2 -25 -69z"/>
<path d="M1760 670 c0 -103 1 -110 20 -110 17 0 19 8 22 70 l3 71 55 -71 c31
-40 62 -70 72 -70 16 0 18 11 18 110 0 103 -1 110 -20 110 -17 0 -19 -8 -22
-72 l-3 -71 -54 71 c-33 43 -62 72 -73 72 -16 0 -18 -11 -18 -110z"/>
<path d="M2550 721 c34 -51 40 -68 40 -110 0 -44 3 -51 20 -51 17 0 20 7 20
46 0 36 8 57 40 104 22 32 40 61 40 64 0 4 -9 6 -20 6 -12 0 -30 -16 -46 -40
-15 -22 -28 -40 -30 -40 -2 0 -16 18 -30 40 -19 28 -34 40 -51 40 -23 0 -23
-1 17 -59z"/>
<path d="M2991 745 c-45 -51 -44 -104 3 -151 64 -64 162 -40 187 46 23 76 -28
140 -111 140 -42 0 -52 -4 -79 -35z m131 -22 c24 -22 24 -77 -2 -103 -43 -43
-113 -12 -113 50 0 60 71 93 115 53z"/>
<path d="M3440 696 c0 -69 4 -88 21 -110 26 -32 84 -36 120 -7 21 17 24 29 27
110 4 87 3 91 -17 91 -19 0 -21 -6 -21 -71 0 -81 -11 -109 -43 -109 -38 0 -47
19 -47 102 0 71 -2 78 -20 78 -18 0 -20 -7 -20 -84z"/>
<path d="M3860 670 l0 -110 25 0 c22 0 25 4 25 35 0 28 4 35 19 35 11 0 28
-15 41 -35 13 -20 30 -35 41 -35 24 0 24 5 -2 42 -21 29 -21 32 -5 58 22 38
20 72 -4 98 -17 18 -32 22 -80 22 l-60 0 0 -110z m117 54 c9 -24 -10 -49 -41
-52 -24 -3 -26 0 -26 32 0 33 2 36 30 36 19 0 33 -6 37 -16z"/>
<path d="M4590 773 c0 -5 15 -54 33 -108 41 -123 55 -130 87 -43 13 35 26 66
29 70 4 4 18 -24 31 -62 35 -100 48 -94 92 40 l36 110 -22 0 c-19 0 -26 -10
-41 -60 -17 -55 -35 -87 -35 -61 0 6 -9 35 -21 66 -28 76 -48 74 -78 -12 l-24
-68 -22 65 c-17 51 -26 66 -43 68 -12 2 -22 0 -22 -5z"/>
<path d="M5149 693 c-63 -136 -62 -133 -35 -133 15 0 26 7 29 20 4 17 14 20
61 20 45 0 57 -4 66 -20 6 -11 20 -20 31 -20 24 0 26 -7 -33 127 -54 122 -65
123 -119 6z m77 -8 c19 -46 19 -45 -21 -45 -19 0 -35 2 -35 5 0 8 33 75 37 75
2 0 11 -16 19 -35z"/>
<path d="M5600 721 c34 -51 40 -68 40 -110 0 -44 3 -51 20 -51 17 0 20 7 20
46 0 36 8 57 40 104 22 32 40 61 40 64 0 4 -10 6 -23 6 -17 0 -30 -11 -46 -40
-12 -22 -24 -40 -26 -40 -3 0 -17 18 -31 40 -19 28 -34 40 -51 40 -23 0 -23
-1 17 -59z"/>
</g>
</svg>
