<?xml version="1.0" standalone="no"?>
<!DOCTYPE svg PUBLIC "-//W3C//DTD SVG 20010904//EN"
 "http://www.w3.org/TR/2001/REC-SVG-20010904/DTD/svg10.dtd">
<svg version="1.0" xmlns="http://www.w3.org/2000/svg"
 width="674.000000pt" height="283.000000pt" viewBox="0 0 674.000000 283.000000"
 preserveAspectRatio="xMidYMid meet">

<g transform="translate(0.000000,283.000000) scale(0.100000,-0.100000)"
fill="#000000" stroke="none">
<path d="M0 1415 l0 -1415 3370 0 3370 0 0 1415 0 1415 -3370 0 -3370 0 0
-1415z m4853 981 c109 -28 187 -66 223 -108 34 -41 50 -100 37 -141 l-10 -32
36 3 c27 3 41 -2 55 -17 17 -19 17 -27 2 -193 -9 -95 -18 -216 -22 -268 l-6
-95 46 77 c25 43 55 82 65 88 30 16 111 13 117 -5 3 -8 1 -38 -6 -67 -16 -75
-26 -278 -13 -278 25 0 84 107 122 222 37 111 102 178 173 178 80 0 157 -61
179 -142 26 -99 -11 -226 -84 -279 -33 -24 -50 -29 -99 -29 -73 0 -110 18
-141 71 l-24 40 -26 -43 c-64 -109 -150 -143 -199 -78 -24 34 -40 123 -33 190
5 51 5 53 -9 30 -22 -40 -86 -229 -86 -258 0 -36 -27 -62 -66 -62 -47 0 -64
22 -59 73 8 75 24 308 35 517 6 113 12 226 14 252 l3 46 -28 -20 c-54 -40
-179 -33 -179 10 0 14 17 27 59 45 70 30 78 40 57 71 -18 29 -108 60 -216 77
-94 14 -354 6 -469 -15 -276 -51 -460 -138 -491 -232 -10 -29 -9 -39 4 -59 32
-49 165 -103 431 -176 408 -113 568 -188 665 -310 43 -54 55 -97 48 -164 -14
-119 -140 -185 -353 -185 -402 1 -805 176 -841 367 -20 104 71 192 186 181 53
-5 46 -24 -21 -59 -33 -18 -68 -43 -76 -56 -67 -101 194 -263 513 -318 98 -16
280 -22 355 -10 137 21 174 113 80 198 -84 76 -177 117 -456 201 -266 80 -431
135 -492 162 -74 32 -141 81 -164 117 -44 73 -11 197 75 280 106 103 366 196
636 227 136 16 343 5 453 -24z m-3166 -51 c54 -16 113 -62 113 -89 0 -50 -108
-66 -505 -74 -292 -7 -300 -8 -298 -27 1 -11 8 -109 15 -217 12 -191 13 -197
32 -193 78 17 151 25 222 25 74 0 86 -3 113 -26 32 -27 41 -66 19 -80 -11 -7
-274 -33 -344 -34 l-32 0 -4 -207 c-4 -161 -8 -216 -21 -245 -19 -46 -43 -49
-86 -12 -46 39 -53 78 -50 277 l4 176 -72 -6 c-46 -4 -73 -2 -73 4 0 19 40 46
92 64 l53 18 7 168 c4 92 11 197 17 232 6 36 8 67 6 69 -3 3 -107 0 -232 -6
-236 -10 -313 -6 -340 20 -20 21 -9 52 25 68 15 7 90 16 167 21 77 4 224 19
327 34 404 55 740 71 845 40z m4464 -552 c58 -49 88 -159 58 -214 -14 -26
-104 -69 -146 -69 -40 0 -48 -23 -40 -116 5 -73 25 -104 66 -104 42 0 129 99
185 213 36 72 53 97 68 97 30 0 32 -26 9 -98 -60 -180 -174 -292 -301 -292
-49 0 -56 3 -90 39 -47 49 -65 112 -64 221 1 132 50 269 114 324 43 36 97 35
141 -1z m-3527 -17 c19 -8 44 -28 57 -45 17 -24 31 -31 55 -31 60 0 64 -13 58
-183 l-5 -152 35 55 c20 30 52 98 73 149 42 109 87 165 143 182 118 35 220
-63 220 -210 0 -79 -30 -153 -79 -194 -41 -34 -67 -41 -137 -35 -45 4 -61 10
-89 38 -19 19 -37 42 -40 52 -10 30 -133 -143 -147 -206 -24 -115 -76 -188
-163 -227 -107 -49 -225 11 -225 113 0 79 93 149 243 182 19 5 27 13 27 28 0
21 -1 21 -20 3 -12 -11 -41 -20 -73 -23 -67 -5 -112 23 -146 92 l-24 48 -36
-42 c-47 -58 -90 -75 -135 -56 -45 19 -59 46 -66 131 l-5 70 -17 -30 c-8 -16
-24 -64 -33 -105 -19 -81 -41 -110 -83 -110 -41 0 -62 27 -62 79 l0 46 -30
-52 c-34 -60 -63 -83 -103 -83 -63 0 -116 57 -117 127 -1 23 -6 17 -31 -37
-57 -122 -114 -151 -181 -91 -32 28 -33 32 -36 118 -2 48 1 144 6 212 8 103
13 127 29 138 30 23 65 27 92 11 30 -16 30 -26 5 -245 -15 -126 -14 -153 5
-153 13 0 46 84 82 205 17 61 36 118 41 128 11 22 58 22 100 1 26 -14 29 -19
24 -47 -3 -18 -8 -81 -11 -142 -7 -117 1 -149 29 -126 24 20 77 169 88 246 14
103 36 134 95 135 45 0 65 -31 53 -85 -10 -47 -28 -175 -24 -175 2 0 15 27 30
60 36 80 73 112 128 108 l41 -3 -4 -122 c-3 -106 -1 -123 12 -123 33 0 93 98
141 231 23 64 63 115 111 139 48 24 55 24 99 6z m-1574 -1016 c24 -24 26 -77
4 -102 -16 -17 -15 -20 10 -58 l26 -40 -24 0 c-17 0 -31 11 -46 35 -13 20 -30
35 -41 35 -15 0 -19 -7 -19 -35 0 -28 -4 -35 -20 -35 -19 0 -20 7 -20 110 l0
110 55 0 c42 0 60 -5 75 -20z m332 -67 l3 -88 29 -3 c39 -5 46 10 46 101 0 70
2 77 20 77 18 0 20 -7 20 -87 0 -102 -18 -133 -77 -133 -71 0 -93 36 -93 151
0 67 1 69 25 69 24 0 24 -2 27 -87z m469 15 l54 -71 3 71 c3 64 5 72 22 72 19
0 20 -7 20 -110 0 -99 -2 -110 -18 -110 -10 0 -41 30 -72 70 l-55 71 -3 -71
c-3 -62 -5 -70 -22 -70 -19 0 -20 7 -20 110 0 99 2 110 18 110 11 0 40 -29 73
-72z m733 32 c14 -22 28 -40 30 -40 2 0 15 18 30 40 16 24 34 40 46 40 11 0
20 -2 20 -6 0 -3 -18 -32 -40 -64 -32 -47 -40 -68 -40 -104 0 -39 -3 -46 -20
-46 -17 0 -20 7 -20 51 0 42 -6 59 -40 110 -40 58 -40 59 -17 59 17 0 32 -12
51 -40z m558 20 c39 -30 53 -73 39 -120 -16 -53 -52 -80 -108 -80 -38 0 -50 5
-79 34 -47 47 -48 100 -3 151 27 31 37 35 79 35 32 0 55 -6 72 -20z m338 -58
c0 -83 9 -102 47 -102 32 0 43 28 43 109 0 65 2 71 21 71 20 0 21 -4 17 -91
-3 -81 -6 -93 -27 -110 -36 -29 -94 -25 -120 7 -17 22 -21 41 -21 110 0 77 2
84 20 84 18 0 20 -7 20 -78z m520 56 c24 -26 26 -60 4 -98 -16 -26 -16 -29 5
-58 26 -37 26 -42 2 -42 -11 0 -28 15 -41 35 -13 20 -30 35 -41 35 -15 0 -19
-7 -19 -35 0 -31 -3 -35 -25 -35 l-25 0 0 110 0 110 60 0 c48 0 63 -4 80 -22z
m655 -48 l22 -65 24 68 c30 86 50 88 78 12 12 -31 21 -60 21 -66 0 -26 18 6
35 61 15 50 22 60 41 60 l22 0 -36 -110 c-44 -134 -57 -140 -92 -40 -13 38
-27 66 -31 62 -3 -4 -16 -35 -29 -70 -32 -87 -46 -80 -87 43 -18 54 -33 103
-33 108 0 5 10 7 22 5 17 -2 26 -17 43 -68z m613 -23 c59 -134 57 -127 33
-127 -11 0 -25 9 -31 20 -9 16 -21 20 -66 20 -47 0 -57 -3 -61 -20 -3 -13 -14
-20 -29 -20 -27 0 -28 -3 35 133 54 117 65 116 119 -6z m366 53 c14 -22 28
-40 31 -40 2 0 14 18 26 40 16 29 29 40 46 40 13 0 23 -2 23 -6 0 -3 -18 -32
-40 -64 -32 -47 -40 -68 -40 -104 0 -39 -3 -46 -20 -46 -17 0 -20 7 -20 51 0
42 -6 59 -40 110 -40 58 -40 59 -17 59 17 0 32 -12 51 -40z"/>
<path d="M5652 1678 c-15 -20 -32 -88 -32 -133 0 -121 66 -200 105 -125 22 43
20 173 -5 228 -20 43 -47 55 -68 30z"/>
<path d="M6082 1724 c-8 -16 -42 -121 -42 -131 0 -10 57 12 68 25 16 21 15 83
-2 107 -13 18 -14 18 -24 -1z"/>
<path d="M2566 1688 c-68 -103 -74 -293 -11 -334 18 -12 24 -11 42 1 58 41 88
246 46 317 -24 41 -56 48 -77 16z"/>
<path d="M3043 1653 c-23 -55 -22 -169 3 -219 24 -50 55 -57 81 -18 26 41 25
174 -2 229 -28 56 -60 60 -82 8z"/>
<path d="M2584 1182 c-54 -22 -74 -40 -91 -80 -10 -24 -11 -38 -3 -52 29 -55
110 15 141 122 9 32 8 33 -47 10z"/>
<path d="M960 704 c0 -32 2 -35 26 -32 55 6 59 68 4 68 -28 0 -30 -3 -30 -36z"/>
<path d="M3025 720 c-40 -44 -10 -120 47 -120 59 0 93 84 50 123 -26 23 -75
21 -97 -3z"/>
<path d="M3910 704 c0 -32 2 -35 26 -32 55 6 59 68 4 68 -28 0 -30 -3 -30 -36z"/>
<path d="M5187 685 c-9 -20 -17 -38 -17 -40 0 -3 16 -5 35 -5 19 0 35 2 35 5
0 9 -29 75 -33 75 -2 0 -11 -16 -20 -35z"/>
</g>
</svg>
